<svg width="840" height="504" viewBox="0 0 840 504" fill="none" xmlns="http://www.w3.org/2000/svg">
<g clip-path="url(#clip0)">
<rect width="840" height="504" fill="#E1503C"/>
<path d="M-15 345L840 345" stroke="#EEA71F" stroke-width="3"/>
<circle cx="47" cy="345" r="18" fill="#EEA71F"/>
<circle cx="296" cy="345" r="18" fill="#EEA71F"/>
<circle cx="588" cy="345" r="18" fill="#EEA71F"/>
<rect x="111.5" y="285.5" width="120" height="120" rx="6.9633" fill="white" stroke="black" stroke-width="3"/>
<path d="M134.932 345.81L188.172 345.81" stroke="black" stroke-width="10.5"/>
<path d="M184.16 370.919L184.16 320.7L207.068 345.809L184.16 370.919Z" fill="black"/>
<rect x="380.5" y="285.5" width="120" height="120" rx="6.9633" fill="white" stroke="black" stroke-width="3"/>
<path d="M440 381.877L440 328.638" stroke="black" stroke-width="10.5"/>
<path d="M465.108 332.65L414.89 332.65L439.999 309.742L465.108 332.65Z" fill="black"/>
<rect x="511.281" y="161.102" width="120" height="120" rx="6.9633" transform="rotate(15 511.281 161.102)" fill="white" stroke="black" stroke-width="3"/>
<path d="M562.886 199.708L549.241 250.633" stroke="black" stroke-width="10.3978"/>
<path d="M574.288 253.231L526.253 240.36L544.399 268.708L574.288 253.231Z" fill="black"/>
<rect x="696.5" y="285.5" width="120" height="120" rx="6.9633" fill="white" stroke="black" stroke-width="3"/>
<g clip-path="url(#clip1)">
<path d="M764.916 372.116V333.97L771.771 327.391H781.361L788.11 333.97L788.11 344.69L781.361 351.034L757.912 351.034L750.142 343.414V306.378" stroke="black" stroke-width="7"/>
<path d="M716.588 363.123V359.606C719.213 357.366 721.558 355.318 723.623 353.463C725.688 351.573 727.438 349.823 728.873 348.213C730.343 346.603 731.463 345.098 732.233 343.698C733.003 342.298 733.388 340.951 733.388 339.656C733.388 337.871 732.846 336.471 731.761 335.456C730.676 334.406 729.083 333.881 726.983 333.881C725.513 333.881 724.166 334.248 722.941 334.983C721.751 335.718 720.648 336.593 719.633 337.608L716.326 334.248C717.936 332.603 719.633 331.343 721.418 330.468C723.203 329.558 725.321 329.103 727.771 329.103C729.486 329.103 731.043 329.348 732.443 329.838C733.843 330.328 735.033 331.028 736.013 331.938C737.028 332.813 737.798 333.881 738.323 335.141C738.883 336.401 739.163 337.801 739.163 339.341C739.163 340.811 738.796 342.316 738.061 343.856C737.361 345.361 736.398 346.901 735.173 348.476C733.948 350.016 732.478 351.608 730.763 353.253C729.083 354.898 727.281 356.596 725.356 358.346C726.336 358.276 727.368 358.206 728.453 358.136C729.538 358.031 730.536 357.978 731.446 357.978H740.896V363.123H716.588Z" fill="black"/>
<path d="M748.176 369.88H781.762L764.969 385.2L748.176 369.88Z" fill="black"/>
</g>
<path fill-rule="evenodd" clip-rule="evenodd" d="M601.39 61.94L587.541 49H555.291L541.442 61.94L541.443 108.191L555.291 121.131H587.541L601.39 108.191L601.39 61.94Z" fill="black"/>
<path fill-rule="evenodd" clip-rule="evenodd" d="M592.011 68.044L581.817 58.519H569.723L559.529 68.044V102.089L569.723 111.614H581.817L592.011 102.089L592.011 68.044Z" fill="white"/>
<path fill-rule="evenodd" clip-rule="evenodd" d="M598.71 69.8413L593.356 64.8381L582.427 64.8381L577.073 69.8413L577.073 87.7243L582.427 92.7276H593.356L598.71 87.7243L598.71 69.8413Z" fill="black"/>
<path fill-rule="evenodd" clip-rule="evenodd" d="M494.663 94.1854L501.783 87.1593L501.783 73.7307L494.663 66.8561L481.26 66.8561L474.202 73.7308L474.202 87.1593L481.26 94.1855L494.663 94.1854Z" fill="black"/>
<path fill-rule="evenodd" clip-rule="evenodd" d="M661.868 94.1854L668.987 87.1593L668.987 73.7307L661.868 66.8561L648.465 66.8561L641.407 73.7308L641.407 87.1593L648.465 94.1855L661.868 94.1854Z" fill="black"/>
<path fill-rule="evenodd" clip-rule="evenodd" d="M534.076 99.9521H608.752V123.048L591.501 139.933H551.328L534.076 123.048V99.9521Z" fill="black"/>
<path d="M534.437 116.346H502.381L487.991 101.956V80.2109" stroke="black" stroke-width="13.4286"/>
<path d="M608.754 116.346H640.81L655.199 101.956V80.2109" stroke="black" stroke-width="13.4286"/>
<path d="M698.189 80.4404H668.988" stroke="black" stroke-width="10.0714"/>
<path d="M474.202 80.4404H445" stroke="black" stroke-width="10.0714"/>
<path fill-rule="evenodd" clip-rule="evenodd" d="M596.134 153.52L588.152 139.628L562.723 132.814L548.865 140.855L545.382 153.852L553.335 167.85L578.764 174.664L592.651 166.518L596.134 153.52Z" fill="black"/>
<path d="M547.109 147.408L509.437 137.314L491.813 147.489L484.121 176.195L504.208 181.577" stroke="black" stroke-width="13.4286"/>
<path d="M594.38 160.074L632.053 170.169L642.228 187.792L634.536 216.499L623.091 213.432" stroke="black" stroke-width="13.4286"/>
<path fill-rule="evenodd" clip-rule="evenodd" d="M626.993 455.253L602.118 450H527.873L503 455.253V461.48L527.874 466.784H602.119L626.993 461.48V455.253Z" fill="black"/>
</g>
<defs>
<clipPath id="clip0">
<rect width="840" height="504" fill="white"/>
</clipPath>
<clipPath id="clip1">
<rect width="84" height="84" fill="white" transform="translate(714 304)"/>
</clipPath>
</defs>
</svg>
